<svg width="24" height="25" viewBox="0 0 24 25" fill="none" xmlns="http://www.w3.org/2000/svg">
<path d="M21 6.47998C17.67 6.14998 14.32 5.97998 10.98 5.97998C9 5.97998 7.02 6.07998 5.04 6.27998L3 6.47998" stroke="#015DAE" stroke-width="1.5" stroke-linecap="round" stroke-linejoin="round"/>
<path d="M8.5 5.47L8.72 4.16C8.88 3.21 9 2.5 10.69 2.5H13.31C15 2.5 15.13 3.25 15.28 4.17L15.5 5.47" stroke="#015DAE" stroke-width="1.5" stroke-linecap="round" stroke-linejoin="round"/>
<path d="M18.8484 9.64001L18.1984 19.71C18.0884 21.28 17.9984 22.5 15.2084 22.5H8.78844C5.99844 22.5 5.90844 21.28 5.79844 19.71L5.14844 9.64001" stroke="#015DAE" stroke-width="1.5" stroke-linecap="round" stroke-linejoin="round"/>
<path d="M10.3281 17H13.6581" stroke="#015DAE" stroke-width="1.5" stroke-linecap="round" stroke-linejoin="round"/>
<path d="M9.5 13H14.5" stroke="#015DAE" stroke-width="1.5" stroke-linecap="round" stroke-linejoin="round"/>
</svg>
