<svg width="532" height="76" viewBox="0 0 532 76" fill="none" xmlns="http://www.w3.org/2000/svg">
<path d="M107.908 29.0456C107.148 24.8225 105.121 20.8528 102.165 17.4743C101.911 17.2209 101.658 16.9675 101.405 16.7141C101.236 16.5452 101.067 16.2918 100.813 16.1229C100.729 16.0384 100.645 15.954 100.56 15.8695C99.2931 14.6026 97.7728 13.4201 96.168 12.3221C91.5226 9.11257 85.7792 6.91656 79.529 5.64963C71.7585 4.12932 63.059 4.04486 54.3594 5.7341C45.6598 7.42333 37.6359 10.5484 30.9634 14.856C30.7101 15.0249 30.4567 15.1938 30.2033 15.3627C29.8654 15.6161 29.5276 15.7851 29.2742 16.0384C28.8519 16.2918 28.4296 16.6297 28.0917 16.8831C23.9531 19.9237 20.4902 23.4711 17.8719 27.2719C16.7738 28.9611 15.7603 30.6504 15.0001 32.4241C12.8886 37.3228 12.2129 42.3906 13.142 47.2893C13.5643 49.4854 14.4089 51.5969 15.4225 53.624C15.5069 53.7929 15.5914 53.8774 15.6758 54.0463C15.7603 54.2152 15.8448 54.3841 15.9292 54.4686C17.1962 56.6646 18.8854 58.6917 20.828 60.5499C25.9802 65.4486 33.3284 68.996 41.7746 70.6853C45.5753 71.4454 49.6295 71.8678 53.8526 71.8678C58.0757 71.8678 62.3833 71.4454 66.7753 70.6008C75.8127 68.9116 84.09 65.4487 90.9314 60.8877C95.9991 57.5092 100.222 53.4551 103.178 48.9786C103.347 48.7252 103.516 48.4718 103.685 48.134C103.854 47.8806 104.023 47.5427 104.192 47.2893C104.361 47.036 104.53 46.6981 104.699 46.4447C105.205 45.6001 105.628 44.671 105.966 43.8264C108.246 38.8431 108.922 33.8599 107.908 29.0456ZM47.0957 26.6806L47.1801 26.5117C48.3626 21.6974 53.7682 17.8121 60.6096 16.2074C58.5825 18.8257 57.5689 22.0352 57.6534 25.4137C57.6534 26.1739 57.7379 26.7651 57.7379 27.4408C57.9068 30.1436 58.0757 32.5085 56.7243 37.4918V37.6607C56.2176 40.0256 57.4845 41.9682 58.3291 43.2352L53.0925 56.7491H35.9467L47.0957 26.6806Z" fill="white"/>
<path d="M70.8311 13.7578C75.4765 14.4335 81.9801 17.3052 80.2908 25.8359C78.9394 33.0151 73.4494 34.1976 71.0845 36.5625C67.1148 38.7585 68.8885 43.4039 63.3984 43.3195C65.3411 43.5729 66.9458 43.4884 67.5371 43.4884C80.0374 43.4884 90.2573 36.9004 90.2573 28.5386C90.2573 21.0215 81.8956 14.7714 70.8311 13.7578Z" fill="#E20813"/>
<path fill-rule="evenodd" clip-rule="evenodd" d="M56.7244 37.5764V37.4074C58.0758 32.5087 57.9069 30.1437 57.738 27.3565C57.6535 26.6808 57.6535 26.0051 57.6535 25.3294C57.569 21.9509 58.5826 18.7414 60.6097 16.123C53.6838 17.7278 48.3627 21.6131 47.1802 26.4274L47.0957 26.5963L36.0312 56.5803H53.177L58.4137 43.0664C57.4846 41.9684 56.3021 39.9413 56.7244 37.5764Z" fill="#124193"/>
<path d="M119.904 26.681C118.721 20.1775 114.667 14.4341 108.248 10.042C95.7477 1.42692 74.8011 -1.36033 53.7701 2.60938C32.908 6.57909 14.6642 16.8834 6.1336 29.4683C1.65712 35.9718 0.0523461 42.8977 1.23481 49.4857C2.50174 55.9893 6.64037 61.7327 13.1439 66.1247C21.928 72.0371 34.5973 75.1622 48.5335 75.1622C54.6147 75.1622 61.0338 74.5709 67.3685 73.304C88.2306 69.3343 106.474 59.0299 115.005 46.4451C119.481 40.026 121.171 33.1846 119.904 26.681ZM103.265 48.8945C100.224 53.371 96.0011 57.4252 91.0178 60.8036C84.1764 65.3646 75.8991 68.8275 66.8617 70.5168C62.4697 71.3614 58.0777 71.7837 53.939 71.7837C49.7159 71.7837 45.6618 71.3614 41.861 70.6012C33.3303 68.912 26.0666 65.3646 20.9144 60.4658C18.9718 58.6076 17.2826 56.5805 16.0156 54.3845C15.9312 54.2156 15.8467 54.0467 15.7623 53.9622C15.6778 53.7933 15.5933 53.7088 15.5089 53.5399C14.4953 51.5973 13.6507 49.4857 13.2284 47.2053C12.2993 42.3065 12.8906 37.2388 15.0866 32.34C15.8467 30.5663 16.7758 28.877 17.9583 27.1878C20.5766 23.387 24.0395 19.8396 28.1782 16.799C28.6005 16.5456 28.9383 16.2078 29.3606 15.9544C29.6985 15.701 29.9519 15.5321 30.2897 15.2787C30.5431 15.1097 30.7965 14.9408 31.0499 14.7719C37.7223 10.4643 45.7462 7.33925 54.4458 5.65001C63.1454 3.96077 71.8449 3.96077 79.6154 5.56555C85.8656 6.83248 91.5246 9.02849 96.2544 12.238C97.8592 13.336 99.2951 14.5185 100.646 15.7854C100.731 15.8699 100.815 15.9544 100.9 16.0388C101.069 16.2078 101.238 16.4611 101.491 16.6301C101.744 16.8834 101.998 17.1368 102.251 17.3902C105.207 20.7687 107.234 24.7384 107.995 28.9615C108.924 33.7758 108.332 38.7591 106.221 43.5734C105.799 44.5025 105.376 45.3471 104.954 46.1917C104.785 46.4451 104.616 46.783 104.447 47.0363C104.278 47.2897 104.109 47.6276 103.94 47.881C103.603 48.3877 103.518 48.6411 103.265 48.8945Z" fill="#E20813"/>
<path d="M148.533 15.9531H136.117V57.9307H144.648V42.2208H149.969C160.696 42.2208 164.581 34.6192 164.581 29.1292C164.665 26.4264 163.652 15.9531 148.533 15.9531ZM144.732 22.5411H148.618C153.601 22.5411 155.797 25.4129 155.797 28.8758C155.797 32.0009 153.77 35.6327 148.618 35.6327H144.732V22.5411Z" fill="#124193"/>
<path d="M185.955 43.741L184.013 49.9067H183.759L181.985 43.9944L176.242 26.7641H167.289L179.367 59.6198L178.691 61.3935C177.593 64.1808 175.82 64.8565 173.032 64.8565C171.766 64.8565 170.836 64.6031 169.907 64.2652L169.316 70.1776C170.836 70.7688 172.357 71.0222 173.962 71.0222C182.746 71.0222 184.857 66.6302 186.631 61.6469L199.807 26.6797H191.53L185.955 43.741Z" fill="#124193"/>
<path d="M219.655 52.5265C213.997 52.5265 210.618 48.1344 210.618 42.4755C210.618 36.3098 214.841 32.3401 220.247 32.3401C222.189 32.3401 223.794 32.509 225.23 33.1847L225.821 27.2724C223.456 26.6811 221.007 26.4277 218.98 26.4277C208 26.4277 202.172 33.8604 202.172 42.1376C202.172 50.4149 207.24 58.5233 218.389 58.5233C221.852 58.5233 224.892 57.8476 226.328 57.2563L225.906 51.344C223.794 52.1041 221.598 52.5265 219.655 52.5265Z" fill="#124193"/>
<path d="M247.445 52.5265C241.701 52.5265 238.407 48.1344 238.407 42.4755C238.407 36.3098 242.546 32.3401 248.036 32.3401C249.978 32.3401 251.499 32.509 253.019 33.1847L253.61 27.2724C251.245 26.6811 248.627 26.4277 246.769 26.4277C235.789 26.4277 229.961 33.8604 229.961 42.1376C229.961 50.4149 235.029 58.5233 246.009 58.5233C249.556 58.5233 252.512 57.8476 253.948 57.2563L253.695 51.344C251.583 52.1041 249.218 52.5265 247.445 52.5265Z" fill="#124193"/>
<path d="M286.716 26.8496H277.678L267.627 41.0392H267.374V26.8496H259.266V57.9316H267.374V43.0663H267.627L278.101 57.9316H288.405L275.229 41.546L286.716 26.8496Z" fill="#124193"/>
<path d="M300.486 48.7252L300.655 43.2352V26.8496H292.547V57.9316H301.162L314.929 36.056H315.098L314.845 41.9683V57.9316H322.953V26.8496H313.831L300.486 48.7252Z" fill="#124193"/>
<path d="M290.602 24.992L290.687 24.9062H290.602V24.992Z" fill="#124193"/>
<path d="M352.088 26.8496L338.743 48.7252H338.574L338.912 43.2352V26.8496H330.719V57.9316H339.418L353.186 36.056H353.27L353.017 41.9683V57.9316H361.125V26.8496H352.088Z" fill="#124193"/>
<path d="M346.266 21.4437C351.587 21.4437 354.628 18.3186 356.064 15.5314L353.192 12.7441C350.996 15.1935 348.209 15.6158 346.351 15.6158C344.324 15.6158 341.536 15.1935 339.34 12.7441L336.469 15.5314C337.905 18.3186 340.776 21.4437 346.266 21.4437Z" fill="#124193"/>
<path d="M405.553 22.5416C408.847 22.5416 411.465 23.1328 413.914 24.0619L414.337 16.8826C411.212 15.9536 408.255 15.5312 404.961 15.5312C391.87 15.5312 381.734 22.7105 381.734 37.238C381.734 52.3566 393.052 58.4379 403.441 58.4379C406.735 58.4379 410.62 57.8467 414.337 56.6642L413.745 49.4849C411.549 50.414 408.678 51.2586 404.961 51.2586C397.36 51.2586 390.687 47.12 390.687 37.069C390.687 28.4539 396.177 22.5416 405.553 22.5416Z" fill="#124193"/>
<path d="M440.772 41.7149V41.3771C443.897 40.7858 446.431 38.3364 446.431 34.5356C446.431 31.2416 444.742 26.8496 435.874 26.8496H420.586V57.9316H436.296C443.306 57.9316 447.867 54.8065 447.867 49.232C447.783 43.9954 444.235 41.9683 440.772 41.7149ZM433.762 39.0966H428.779V32.3396H433.762C435.282 32.3396 438.407 32.5086 438.407 35.6336C438.407 38.9277 435.367 39.0966 433.762 39.0966ZM428.779 44.4177H433.846C435.789 44.4177 439.336 44.5866 439.336 48.3874C439.336 52.526 435.367 52.526 433.846 52.526H428.779V44.4177Z" fill="#124193"/>
<path d="M482.155 43.0667C482.155 40.2795 481.986 26.4277 467.966 26.4277C459.604 26.4277 452.594 32.509 452.594 42.391C452.594 53.3711 460.026 58.4388 469.402 58.4388C472.949 58.4388 476.834 57.7631 479.959 56.4962V50.3305C477.088 51.6818 473.878 52.5265 470.331 52.5265C464.165 52.5265 461.378 48.8101 461.124 44.8404H482.155V43.0667ZM467.459 32.0867C470.5 32.0867 474.047 34.1138 473.963 39.3504H461.209C461.124 35.2118 463.827 32.0867 467.459 32.0867Z" fill="#124193"/>
<path d="M484.945 32.8464H494.658V57.9316H502.767V32.8464H512.395V26.8496H484.945V32.8464Z" fill="#124193"/>
<path d="M530.891 13.4204C530.131 12.069 529.117 11.0554 527.766 10.2953C526.415 9.53511 525.063 9.19727 523.627 9.19727C522.192 9.19727 520.84 9.53511 519.489 10.2953C518.137 11.0554 517.124 12.069 516.364 13.4204C515.603 14.7717 515.266 16.1231 515.266 17.6435C515.266 19.0793 515.603 20.4307 516.364 21.7821C517.124 23.1335 518.137 24.147 519.489 24.9072C520.84 25.6673 522.192 26.0052 523.627 26.0052C525.063 26.0052 526.499 25.6673 527.766 24.9072C529.117 24.147 530.131 23.1335 530.891 21.7821C531.651 20.4307 531.989 19.0793 531.989 17.6435C532.074 16.1231 531.651 14.7717 530.891 13.4204ZM529.709 21.0219C529.117 22.1199 528.273 22.9646 527.09 23.6402C525.992 24.2315 524.81 24.5693 523.627 24.5693C522.445 24.5693 521.262 24.2315 520.164 23.6402C519.066 23.049 518.222 22.2044 517.546 21.0219C516.955 19.9239 516.617 18.7415 516.617 17.559C516.617 16.3765 516.955 15.1941 517.546 14.0961C518.137 12.998 519.066 12.1534 520.164 11.4777C521.262 10.8865 522.445 10.5487 523.627 10.5487C524.81 10.5487 525.908 10.8865 527.09 11.4777C528.188 12.069 529.117 12.9136 529.709 14.0961C530.3 15.1941 530.638 16.3765 530.638 17.559C530.638 18.8259 530.384 19.9239 529.709 21.0219Z" fill="#124193"/>
<path d="M525.152 18.658C524.983 18.4891 524.73 18.3201 524.392 18.1512C525.152 18.0668 525.828 17.8134 526.25 17.3066C526.757 16.7998 526.926 16.2086 526.926 15.6174C526.926 15.1951 526.757 14.6883 526.504 14.266C526.25 13.8437 525.828 13.5903 525.406 13.4214C524.899 13.2524 524.139 13.168 523.125 13.168H520V22.2054H521.436V18.4046H522.28C522.787 18.4046 523.21 18.4891 523.463 18.7425C523.885 18.9958 524.392 19.756 524.983 20.854L525.743 22.2899H527.517L526.419 20.5162C525.997 19.5871 525.49 18.9958 525.152 18.658ZM523.21 17.1377H521.436V14.4349H523.125C523.801 14.4349 524.308 14.5194 524.561 14.6038C524.814 14.6883 525.068 14.8572 525.152 15.1106C525.321 15.2795 525.406 15.5329 525.406 15.7863C525.406 16.2086 525.237 16.5464 524.983 16.7998C524.645 17.0532 524.054 17.1377 523.21 17.1377Z" fill="#124193"/>
</svg>
