<svg width="128" height="128" viewBox="0 0 128 128" fill="none" xmlns="http://www.w3.org/2000/svg">
<path d="M75.8412 52.16L64.0012 58.08M64.0012 58.08L52.1612 52.16M64.0012 58.08V72.9066M111.415 34.3467L99.5745 40.2667M111.415 34.3467L99.5745 28.4267M111.415 34.3467V49.1733M75.8412 16.5867L64.0012 10.6667L52.1612 16.5867M16.5879 34.3467L28.4279 28.4267M16.5879 34.3467L28.4279 40.2667M16.5879 34.3467V49.1733M64.0012 117.333L52.1612 111.413M64.0012 117.333L75.8412 111.413M64.0012 117.333V102.507M28.4279 99.5733L16.5879 93.6533V78.8267M98.6679 99.5735L110.508 93.6535V78.8268" stroke="#015DAE" stroke-width="6" stroke-linecap="round" stroke-linejoin="round"/>
</svg>
