<svg width="35" height="35" viewBox="0 0 35 35" fill="none" xmlns="http://www.w3.org/2000/svg">
<path d="M32.037 26.7306C32.037 27.2556 31.9203 27.7952 31.6724 28.3202C31.4245 28.8452 31.1036 29.341 30.6807 29.8077C29.9661 30.5952 29.1786 31.1639 28.2891 31.5285C27.4141 31.8931 26.4661 32.0827 25.4453 32.0827C23.9578 32.0827 22.3682 31.7327 20.6911 31.0181C19.0141 30.3035 17.337 29.341 15.6745 28.1306C13.9974 26.9056 12.4078 25.5493 10.8911 24.0473C9.38906 22.5306 8.03281 20.941 6.8224 19.2785C5.62656 17.616 4.66406 15.9535 3.96406 14.3056C3.26406 12.6431 2.91406 11.0535 2.91406 9.53685C2.91406 8.54518 3.08906 7.59727 3.43906 6.72227C3.78906 5.83268 4.34323 5.01602 5.11615 4.28685C6.04948 3.3681 7.07031 2.91602 8.14948 2.91602C8.55781 2.91602 8.96615 3.00352 9.33073 3.17852C9.7099 3.35352 10.0453 3.61602 10.3078 3.99518L13.6911 8.76393C13.9536 9.12852 14.1432 9.46393 14.2745 9.78477C14.4057 10.091 14.4786 10.3973 14.4786 10.6743C14.4786 11.0243 14.3766 11.3743 14.1724 11.7098C13.9828 12.0452 13.7057 12.3952 13.3557 12.7452L12.2474 13.8973C12.087 14.0577 12.0141 14.2473 12.0141 14.4806C12.0141 14.5973 12.0286 14.6993 12.0578 14.816C12.1016 14.9327 12.1453 15.0202 12.1745 15.1077C12.437 15.5889 12.8891 16.216 13.5307 16.9743C14.187 17.7327 14.887 18.5056 15.6453 19.2785C16.4328 20.0514 17.1911 20.766 17.9641 21.4223C18.7224 22.0639 19.3495 22.5014 19.8453 22.7639C19.9182 22.7931 20.0057 22.8368 20.1078 22.8806C20.2245 22.9243 20.3411 22.9389 20.4724 22.9389C20.7203 22.9389 20.9099 22.8514 21.0703 22.691L22.1786 21.5973C22.5432 21.2327 22.8932 20.9556 23.2286 20.7806C23.5641 20.5764 23.8995 20.4743 24.2641 20.4743C24.5411 20.4743 24.8328 20.5327 25.1536 20.6639C25.4745 20.7952 25.8099 20.9848 26.1745 21.2327L31.0016 24.6598C31.3807 24.9223 31.6432 25.2285 31.8036 25.5931C31.9495 25.9577 32.037 26.3223 32.037 26.7306Z" stroke="#111111" stroke-width="2.1875" stroke-miterlimit="10"/>
</svg>
