<svg width="128" height="128" viewBox="0 0 128 128" fill="none" xmlns="http://www.w3.org/2000/svg">
<path d="M83.836 51.6801C94.8227 62.6668 94.8227 80.4268 83.836 91.3601C72.8494 102.347 55.0893 102.347 44.156 91.3601C33.1693 80.3734 33.1693 62.6134 44.156 51.6801C55.0893 40.6934 72.9027 40.6934 83.836 51.6801Z" stroke="#111111" stroke-width="8.0496" stroke-linecap="round" stroke-linejoin="round"/>
<path d="M64.0015 71.5199L55.5215 80" stroke="#111111" stroke-width="8.0496" stroke-linecap="round" stroke-linejoin="round"/>
<path d="M101.71 33.8135C102.51 34.6135 102.51 35.9468 101.71 36.8001C100.91 37.6001 99.577 37.6001 98.7237 36.8001C97.8703 36.0001 97.9237 34.6668 98.7237 33.8135C99.5237 32.9602 100.91 32.9602 101.71 33.8135Z" stroke="#111111" stroke-width="5.33333" stroke-miterlimit="10"/>
<path d="M101.71 33.8135C102.51 34.6135 102.51 35.9468 101.71 36.8001C100.91 37.6001 99.577 37.6001 98.7237 36.8001C97.8703 36.0001 97.9237 34.6668 98.7237 33.8135C99.5237 32.9602 100.91 32.9602 101.71 33.8135Z" stroke="#111111" stroke-width="8" stroke-linecap="round" stroke-linejoin="round"/>
<path d="M29.2839 106.24C30.0839 107.04 30.0839 108.373 29.2839 109.227C28.4839 110.08 27.1506 110.027 26.2973 109.227C25.4973 108.427 25.4973 107.093 26.2973 106.24C27.0973 105.387 28.4839 105.387 29.2839 106.24Z" stroke="#111111" stroke-width="5.33333" stroke-miterlimit="10"/>
<path d="M29.2839 106.24C30.0839 107.04 30.0839 108.373 29.2839 109.227C28.4839 110.08 27.1506 110.027 26.2973 109.227C25.4973 108.427 25.4973 107.093 26.2973 106.24C27.0973 105.387 28.4839 105.387 29.2839 106.24Z" stroke="#111111" stroke-width="8" stroke-linecap="round" stroke-linejoin="round"/>
<path d="M116.691 70.0267C117.491 70.8267 117.491 72.16 116.691 73.0134C115.891 73.8134 114.557 73.8134 113.704 73.0134C112.851 72.2134 112.904 70.8801 113.704 70.0267C114.504 69.1734 115.891 69.1734 116.691 70.0267Z" stroke="#111111" stroke-width="5.33333" stroke-miterlimit="10"/>
<path d="M116.691 70.0267C117.491 70.8267 117.491 72.16 116.691 73.0134C115.891 73.8134 114.557 73.8134 113.704 73.0134C112.851 72.2134 112.904 70.8801 113.704 70.0267C114.504 69.1734 115.891 69.1734 116.691 70.0267Z" stroke="#111111" stroke-width="8" stroke-linecap="round" stroke-linejoin="round"/>
<path d="M14.2431 70.0267C15.0431 70.8267 15.0431 72.16 14.2431 73.0134C13.4431 73.8667 12.1096 73.8134 11.2563 73.0134C10.4562 72.2134 10.4562 70.8801 11.2563 70.0267C12.1096 69.1734 13.4431 69.1734 14.2431 70.0267Z" stroke="#111111" stroke-width="5.33333" stroke-miterlimit="10"/>
<path d="M14.2431 70.0267C15.0431 70.8267 15.0431 72.16 14.2431 73.0134C13.4431 73.8667 12.1096 73.8134 11.2563 73.0134C10.4562 72.2134 10.4562 70.8801 11.2563 70.0267C12.1096 69.1734 13.4431 69.1734 14.2431 70.0267Z" stroke="#111111" stroke-width="8" stroke-linecap="round" stroke-linejoin="round"/>
<path d="M101.71 106.24C102.51 107.04 102.51 108.373 101.71 109.227C100.91 110.027 99.577 110.027 98.7237 109.227C97.8703 108.427 97.9237 107.093 98.7237 106.24C99.577 105.387 100.91 105.387 101.71 106.24Z" stroke="#111111" stroke-width="5.33333" stroke-miterlimit="10"/>
<path d="M101.71 106.24C102.51 107.04 102.51 108.373 101.71 109.227C100.91 110.027 99.577 110.027 98.7237 109.227C97.8703 108.427 97.9237 107.093 98.7237 106.24C99.577 105.387 100.91 105.387 101.71 106.24Z" stroke="#111111" stroke-width="8" stroke-linecap="round" stroke-linejoin="round"/>
<path d="M29.2839 33.8135C30.0839 34.6135 30.0839 35.9468 29.2839 36.8001C28.4839 37.6535 27.1506 37.6001 26.2973 36.8001C25.4973 36.0001 25.4973 34.6668 26.2973 33.8135C27.0973 32.9602 28.4839 32.9602 29.2839 33.8135Z" stroke="#111111" stroke-width="5.33333" stroke-miterlimit="10"/>
<path d="M29.2839 33.8135C30.0839 34.6135 30.0839 35.9468 29.2839 36.8001C28.4839 37.6535 27.1506 37.6001 26.2973 36.8001C25.4973 36.0001 25.4973 34.6668 26.2973 33.8135C27.0973 32.9602 28.4839 32.9602 29.2839 33.8135Z" stroke="#111111" stroke-width="8" stroke-linecap="round" stroke-linejoin="round"/>
<path d="M65.4916 18.7735C66.2916 19.5735 66.2916 20.9068 65.4916 21.7601C64.6916 22.6135 63.3583 22.5601 62.5049 21.7601C61.6516 20.9601 61.7049 19.6268 62.5049 18.7735C63.3049 17.9201 64.6916 17.9735 65.4916 18.7735Z" stroke="#111111" stroke-width="5.33333" stroke-miterlimit="10"/>
<path d="M65.4916 18.7735C66.2916 19.5735 66.2916 20.9068 65.4916 21.7601C64.6916 22.6135 63.3583 22.5601 62.5049 21.7601C61.6516 20.9601 61.7049 19.6268 62.5049 18.7735C63.3049 17.9201 64.6916 17.9735 65.4916 18.7735Z" stroke="#111111" stroke-width="8" stroke-linecap="round" stroke-linejoin="round"/>
</svg>
