<svg width="127" height="127" viewBox="0 0 127 127" fill="none" xmlns="http://www.w3.org/2000/svg">
<path fill-rule="evenodd" clip-rule="evenodd" d="M126.012 74.7203C120.713 104.439 94.7414 127 63.5 127C28.4299 127 0 98.5701 0 63.5C0 28.4299 28.4299 0 63.5 0C98.5701 0 127 28.4299 127 63.5C127 65.608 126.897 67.6921 126.697 69.7474H59.6745V69.8763H47.8243H7.97072C7.97072 73.4003 9.00156 76.8898 11.0044 80.1455C13.0072 83.4013 15.9428 86.3595 19.6435 88.8513C23.3443 91.3432 27.7377 93.3198 32.573 94.6684C37.4082 96.017 42.5906 96.7111 47.8243 96.7111C53.0579 96.7111 58.2403 96.017 63.0756 94.6684C67.9108 93.3198 72.3042 91.3432 76.005 88.8513C79.7057 86.3595 82.6413 83.4013 84.6442 80.1455C85.7214 78.3944 86.5174 76.5757 87.0231 74.7203H126.012ZM87.6778 60.5776C87.6778 57.0187 86.647 53.4947 84.6441 50.2067C82.6413 46.9187 79.7057 43.9312 76.005 41.4147C72.3042 38.8982 67.9108 36.902 63.0756 35.54C58.2403 34.1781 53.0579 33.4771 47.8243 33.4771C42.5906 33.4771 37.4082 34.1781 32.573 35.54C27.7377 36.902 23.3443 38.8982 19.6435 41.4147C15.9428 43.9312 13.0072 46.9187 11.0044 50.2067C9.00156 53.4947 7.97072 57.0187 7.97072 60.5776L47.8243 60.5776H87.6778Z" fill="#015DAE"/>
</svg>
